<?xml version="1.0" encoding="UTF-8"?>
<svg viewBox="0 0 16 16" xmlns="http://www.w3.org/2000/svg">
    <defs>
        <style>.a{fill:rgba(255,255,255,0);}.b{fill:#8894a2;}</style>
    </defs>
    <g transform="translate(-44 -389)">
        <path class="b" transform="translate(44 357.5)" d="M8,32c-4.419,0-8,3.117-8,6.964A6.4,6.4,0,0,0,1.781,43.34,8.651,8.651,0,0,1,.069,46.548a.281.281,0,0,0-.047.291A.245.245,0,0,0,.25,47a6.882,6.882,0,0,0,4.394-1.721A8.968,8.968,0,0,0,8,45.929c4.419,0,8-3.117,8-6.964S12.419,32,8,32Z"/>
    </g>
</svg>