<svg xmlns="http://www.w3.org/2000/svg" width="16" height="15.238" viewBox="0 0 16 15.238"><defs><style>.a{fill:#8894a2;fill-rule:evenodd;}</style></defs><path class="a" d="M82.294,583.333h1.6v9.133h-1.6a1.562,1.562,0,0,1-1.6-1.522v-6.089a1.562,1.562,0,0,1,1.6-1.522m10.821,0H85.494v9.133l1.375,4.715a1.738,1.738,0,0,0,2.366,1.27,1.664,1.664,0,0,0,1.059-1.576v-3.648a.782.782,0,0,1,.8-.761h3.411a2.11,2.11,0,0,0,2.132-2.55l-1.39-4.97a2.167,2.167,0,0,0-2.132-1.614" transform="translate(-80.694 -583.333)"/></svg>