<svg xmlns="http://www.w3.org/2000/svg" width="16" height="16" viewBox="0 0 16 16"><defs><style>.a{fill:none;fill-rule:evenodd;}.b{fill:#a0b2c9;}</style></defs><g transform="translate(-297 -57)"><path class="b" d="M15.75,8a7.75,7.75,0,1,0,7.75,7.75A7.751,7.751,0,0,0,15.75,8Zm0,3.438a1.313,1.313,0,1,1-1.312,1.313A1.312,1.312,0,0,1,15.75,11.438Zm1.75,7.937a.375.375,0,0,1-.375.375h-2.75A.375.375,0,0,1,14,19.375v-.75a.375.375,0,0,1,.375-.375h.375v-2h-.375A.375.375,0,0,1,14,15.875v-.75a.375.375,0,0,1,.375-.375h2a.375.375,0,0,1,.375.375V18.25h.375a.375.375,0,0,1,.375.375Z" transform="translate(289.25 49.25)"/></g></svg>