<svg xmlns="http://www.w3.org/2000/svg" width="110.916" height="26.208" viewBox="0 0 110.916 26.208"><defs><style>.a{fill:#042c5c;}</style></defs><path class="a" d="M-35.982-13.14A7.065,7.065,0,0,1-32.6-10.782a6.187,6.187,0,0,1,1.224,3.87A5.81,5.81,0,0,1-34.038-1.8Q-36.7,0-41.742,0H-55.35V-25.2h12.888q4.824,0,7.344,1.782a5.593,5.593,0,0,1,2.52,4.806,5.987,5.987,0,0,1-.882,3.222A6.168,6.168,0,0,1-35.982-13.14Zm-12.312-6.912v4.86h4.9q3.6,0,3.6-2.448,0-2.412-3.6-2.412Zm5.976,14.9q3.744,0,3.744-2.556t-3.744-2.556h-5.976v5.112ZM-14.958.5A15.072,15.072,0,0,1-22.14-1.188a12.713,12.713,0,0,1-5-4.68A12.694,12.694,0,0,1-28.962-12.6a12.694,12.694,0,0,1,1.818-6.732,12.713,12.713,0,0,1,5-4.68A15.072,15.072,0,0,1-14.958-25.7a15.072,15.072,0,0,1,7.182,1.692,12.712,12.712,0,0,1,5,4.68A12.694,12.694,0,0,1-.954-12.6,12.694,12.694,0,0,1-2.772-5.868a12.712,12.712,0,0,1-5,4.68A15.072,15.072,0,0,1-14.958.5Zm0-5.9A6.749,6.749,0,0,0-11.5-6.3,6.474,6.474,0,0,0-9.054-8.838a7.684,7.684,0,0,0,.9-3.762,7.684,7.684,0,0,0-.9-3.762A6.474,6.474,0,0,0-11.5-18.9a6.749,6.749,0,0,0-3.456-.9,6.749,6.749,0,0,0-3.456.9,6.474,6.474,0,0,0-2.448,2.538,7.684,7.684,0,0,0-.9,3.762,7.684,7.684,0,0,0,.9,3.762A6.474,6.474,0,0,0-18.414-6.3,6.749,6.749,0,0,0-14.958-5.4ZM26.766-25.2V0H19.638V-9.828H9.918V0H2.79V-25.2H9.918v9.468h9.72V-25.2Zm16.812-.5a13.358,13.358,0,0,1,6.282,1.422,10.008,10.008,0,0,1,4.212,4.14,13.378,13.378,0,0,1,1.494,6.534V0H48.438V-5.58H38.61V0H31.59V-13.608a13.378,13.378,0,0,1,1.494-6.534,10.008,10.008,0,0,1,4.212-4.14A13.358,13.358,0,0,1,43.578-25.7Zm4.86,14.616V-14.22A5.857,5.857,0,0,0,47.106-18.4a4.681,4.681,0,0,0-3.564-1.4,4.727,4.727,0,0,0-3.6,1.4A5.857,5.857,0,0,0,38.61-14.22v3.132Z" transform="translate(55.35 25.704)"/></svg>